<svg id="Capa_1" enable-background="new 0 0 512 512" height="512" viewBox="0 0 512 512" width="512" xmlns="http://www.w3.org/2000/svg" xmlns:xlink="http://www.w3.org/1999/xlink"><linearGradient id="SVGID_1_" gradientUnits="userSpaceOnUse" x1="256" x2="256" y1="496" y2="16"><stop offset="0" stop-color="#5558ff"/><stop offset="1" stop-color="#00c0ff"/></linearGradient><g><g><path d="m497 76h-46v-45c0-8.284-6.716-15-15-15h-60c-8.284 0-15 6.716-15 15v45h-210v-45c0-8.284-6.716-15-15-15h-60c-8.284 0-15 6.716-15 15v45h-46c-8.284 0-15 6.716-15 15v390c0 8.284 6.716 15 15 15h482c8.284 0 15-6.716 15-15v-390c0-8.284-6.716-15-15-15zm-106-30h30v45c0 8.271-6.729 15-15 15s-15-6.729-15-15zm-300 0h30v45c0 8.271-6.729 15-15 15s-15-6.729-15-15zm391 420h-452v-270h452zm0-300h-452v-60h33.58c6.192 17.458 22.865 30 42.42 30s36.228-12.542 42.42-30h215.16c6.192 17.458 22.865 30 42.42 30s36.228-12.542 42.42-30h33.58zm-406 270h360c8.284 0 15-6.716 15-15v-180c0-8.284-6.716-15-15-15h-360c-8.284 0-15 6.716-15 15v180c0 8.284 6.716 15 15 15zm315-180h30v30h-30zm0 60h30v30h-30zm0 60h30v30h-30zm-60-120h30v30h-30zm0 60h30v30h-30zm0 60h30v30h-30zm-60-120h30v30h-30zm0 60h30v30h-30zm0 60h30v30h-30zm-60-120h30v30h-30zm0 60h30v30h-30zm0 60h30v30h-30zm-60-120h30v30h-30zm0 60h30v30h-30zm0 60h30v30h-30zm-60-120h30v30h-30zm0 60h30v30h-30zm0 60h30v30h-30z" fill="url(#SVGID_1_)"/></g></g></svg>