<svg id="Capa_1" enable-background="new 0 0 497 497" height="512" viewBox="0 0 497 497" width="512" xmlns="http://www.w3.org/2000/svg"><g><g><path d="m16.567 397.6v66.268c0 18.298 14.834 33.132 33.133 33.132h397.6c18.299 0 33.132-14.834 33.132-33.132v-66.268z" fill="#b5dbff"/><path d="m457.433 397.6v66.268c0 18.298-14.834 33.132-33.132 33.132h23c18.299 0 33.132-14.834 33.132-33.132v-66.268z" fill="#97d0ff"/><path d="m16.567 132.533v298.2c0 18.298 14.834 33.132 33.132 33.132h397.601c18.299 0 33.132-14.834 33.132-33.132v-298.2z" fill="#edf5ff"/><path d="m457.433 132.533v298.2c0 18.298-14.834 33.132-33.132 33.132h23c18.299 0 33.132-14.834 33.132-33.132v-298.2z" fill="#d5e8fe"/><path d="m480.433 149.1v-82.834c0-18.299-14.834-33.132-33.132-33.132h-397.601c-18.299 0-33.132 14.834-33.132 33.132v82.834z" fill="#ff435b"/><g><path d="m115.967 73.767h-16.567c-4.142 0-7.5-3.358-7.5-7.5s3.358-7.5 7.5-7.5h16.567c4.142 0 7.5 3.358 7.5 7.5s-3.358 7.5-7.5 7.5z" fill="#e3374e"/></g><g><path d="m165.667 73.767h-16.567c-4.142 0-7.5-3.358-7.5-7.5s3.358-7.5 7.5-7.5h16.566c4.142 0 7.5 3.358 7.5 7.5s-3.357 7.5-7.499 7.5z" fill="#e3374e"/></g><g><path d="m347.9 73.767h-16.566c-4.142 0-7.5-3.358-7.5-7.5s3.358-7.5 7.5-7.5h16.566c4.142 0 7.5 3.358 7.5 7.5s-3.358 7.5-7.5 7.5z" fill="#e3374e"/></g><g><path d="m397.6 73.767h-16.567c-4.142 0-7.5-3.358-7.5-7.5s3.358-7.5 7.5-7.5h16.567c4.142 0 7.5 3.358 7.5 7.5s-3.358 7.5-7.5 7.5z" fill="#e3374e"/></g><path d="m115.967 66.267c0 9.149 7.417 16.567 16.567 16.567s16.567-7.417 16.567-16.567v-49.7c-.001-9.15-7.418-16.567-16.568-16.567-9.149 0-16.567 7.417-16.567 16.567v49.7z" fill="#596c76"/><path d="m347.9 66.267c0 9.149 7.417 16.567 16.567 16.567s16.567-7.417 16.567-16.567v-49.7c0-9.15-7.417-16.567-16.567-16.567s-16.567 7.417-16.567 16.567z" fill="#596c76"/><g fill="#e3374e"><path d="m447.3 33.133h-23c18.299 0 33.132 14.834 33.132 33.132v82.835h23v-82.834c.001-18.299-14.833-33.133-33.132-33.133z"/><path d="m16.567 108.467h463.866v15h-463.866z"/></g></g><path d="m132.533 298.2h231.933v104.4h-231.933z" fill="#ff7b4a"/><g><path d="m314.767 222.867c-4.143 0-7.5-3.358-7.5-7.5v-16.567c0-4.142 3.357-7.5 7.5-7.5s7.5 3.358 7.5 7.5v16.567c0 4.142-3.358 7.5-7.5 7.5z" fill="#fdbf00"/></g><g><path d="m182.233 222.867c-4.143 0-7.5-3.358-7.5-7.5v-16.567c0-4.142 3.357-7.5 7.5-7.5s7.5 3.358 7.5 7.5v16.567c0 4.142-3.357 7.5-7.5 7.5z" fill="#fdbf00"/></g><g><path d="m248.5 206.3c-4.143 0-7.5-3.358-7.5-7.5v-16.566c0-4.142 3.357-7.5 7.5-7.5s7.5 3.358 7.5 7.5v16.566c0 4.142-3.357 7.5-7.5 7.5z" fill="#fdbf00"/></g><g fill="#76e2f8"><path d="m265.067 270.067h-33.133v-63.267c0-4.418 3.582-8 8-8h17.133c4.418 0 8 3.582 8 8z"/><path d="m331.333 270.067h-33.133v-46.7c0-4.418 3.582-8 8-8h17.133c4.418 0 8 3.582 8 8z"/><path d="m198.8 270.067h-33.133v-46.7c0-4.418 3.582-8 8-8h17.133c4.418 0 8 3.582 8 8z"/></g><path d="m341.467 298.2h23v104.4h-23z" fill="#ff624a"/><path d="m373.033 430.733h-249.066c-4.418 0-8-3.582-8-8v-17.133c0-4.418 3.582-8 8-8h249.067c4.418 0 8 3.582 8 8v17.133c-.001 4.419-3.582 8-8.001 8z" fill="#fdbf00"/><path d="m373.033 397.6h-23c4.418 0 8 3.582 8 8v17.133c0 4.418-3.582 8-8 8h23c4.418 0 8-3.582 8-8v-17.133c0-4.418-3.581-8-8-8z" fill="#ff9100"/><path d="m348.467 265.067h-199.934c-8.837 0-16 7.163-16 16v16.49c0 16.043 12.757 29.53 28.801 29.634 12.494.081 23.165-7.745 27.321-18.766.289-.767 1.042-1.258 1.862-1.258.82 0 1.573.492 1.862 1.259 4.135 10.965 14.719 18.766 27.13 18.766s22.995-7.801 27.13-18.766c.289-.767 1.042-1.259 1.862-1.259.819 0 1.573.492 1.862 1.259 4.135 10.965 14.719 18.766 27.13 18.766s22.995-7.801 27.13-18.766c.289-.767 1.042-1.259 1.862-1.259.819 0 1.573.492 1.862 1.258 4.155 11.021 14.827 18.846 27.321 18.766 16.043-.103 28.801-13.59 28.801-29.634v-16.49c-.002-8.837-7.166-16-16.002-16z" fill="#ff435b"/><path d="m348.467 265.067h-23c8.836 0 16 7.163 16 16v16.49c0 12.036-7.181 22.633-17.542 27.22 3.596 1.566 7.562 2.441 11.741 2.414 16.043-.103 28.801-13.59 28.801-29.634v-16.49c0-8.837-7.164-16-16-16z" fill="#e3374e"/><g fill="#ff624a"><path d="m132.533 371.967h33.134c4.143 0 7.5-3.358 7.5-7.5s-3.357-7.5-7.5-7.5h-33.134z"/><path d="m364.467 356.967h-33.134c-4.143 0-7.5 3.358-7.5 7.5s3.357 7.5 7.5 7.5h33.134z"/></g></g></svg>