<?xml version="1.0"?>
<svg xmlns="http://www.w3.org/2000/svg" xmlns:xlink="http://www.w3.org/1999/xlink" xmlns:svgjs="http://svgjs.com/svgjs" version="1.1" width="512" height="512" x="0" y="0" viewBox="0 0 512 512" style="enable-background:new 0 0 512 512" xml:space="preserve" class=""><g><g xmlns="http://www.w3.org/2000/svg"><g><g><path d="m512 73.89v427.961h-255.979l-35.681-188.354 35.639-239.607z" fill="#00008b" data-original="#f4b62a" style="" class=""/><path d="m367.03 390.822h31.723v-31.723h-31.723zm0-63.446h31.723v-31.723h-31.723zm0-95.168v31.723h31.723v-31.723zm-63.446 158.614h31.723v-31.723h-31.723zm0-63.446h31.723v-31.723h-31.723zm0-63.445h31.723v-31.723h-31.723zm-47.573 63.445-.011-31.723v-63.445l-.011-43.619v-46.41l-.011-68.288h-255.978v427.961h256.021v-63.445l-.011-47.584v-63.447z" fill="#00008b" data-original="#fbca14" style="" class=""/><g><path d="m255.989 188.589-47.573 127.819 47.605 121.997h191.838v-249.816z" fill="#e2e8ed" data-original="#e2e8ed" style="" class=""/><path d="m367.03 232.208v31.723zm-111.019 95.168-.011-31.723v-63.445l-.011-43.619h-191.848v249.816h191.88l-.011-47.584v-63.445z" fill="#f2f3f4" data-original="#f2f3f4" style="" class=""/></g></g><g><g><path d="m303.584 232.208h31.723v31.723h-31.723z" fill="#008475" data-original="#008475" style=""/></g><g><g><path d="m113.248 232.208h31.723v31.723h-31.723z" fill="#00a98f" data-original="#00a98f" style="" class=""/></g><g><path d="m176.693 232.208h31.723v31.723h-31.723z" fill="#00a98f" data-original="#00a98f" style="" class=""/></g><g><path d="m271.861 232.208v31.723h-15.861l-5.062-15.018 5.062-16.705z" fill="#008475" data-original="#008475" style=""/><g><path d="m240.139 232.208h15.861v31.723h-15.861z" fill="#00a98f" data-original="#00a98f" style="" class=""/></g></g><g><path d="m367.03 232.208h31.723v31.723h-31.723z" fill="#008475" data-original="#008475" style=""/></g><g><path d="m113.248 295.653h31.723v31.723h-31.723z" fill="#00a98f" data-original="#00a98f" style="" class=""/></g><g><path d="m176.693 295.653h31.723v31.723h-31.723z" fill="#00a98f" data-original="#00a98f" style="" class=""/></g><g><path d="m271.861 295.653v31.723h-15.85l-5.793-15.861 5.782-15.862z" fill="#008475" data-original="#008475" style=""/><g><path d="m256.011 327.376h-15.872v-31.723h15.861z" fill="#00a98f" data-original="#00a98f" style="" class=""/></g></g><g><path d="m303.584 295.653h31.723v31.723h-31.723z" fill="#008475" data-original="#008475" style=""/></g><g><path d="m367.03 295.653h31.723v31.723h-31.723z" fill="#008475" data-original="#008475" style=""/></g><g><path d="m113.248 359.099h31.723v31.723h-31.723z" fill="#00a98f" data-original="#00a98f" style="" class=""/></g><g><path d="m176.693 359.099h31.723v31.723h-31.723z" fill="#00a98f" data-original="#00a98f" style="" class=""/></g><g><path d="m271.861 359.099v31.723h-15.85l-5.793-15.198 5.793-16.525z" fill="#008475" data-original="#008475" style=""/><g><path d="m240.139 359.099h15.872v31.723h-15.872z" fill="#00a98f" data-original="#00a98f" style="" class=""/></g></g><g><path d="m303.584 359.099h31.723v31.723h-31.723z" fill="#cf3b00" data-original="#cf3b00" style=""/></g><g><path d="m367.03 359.099h31.723v31.723h-31.723z" fill="#008475" data-original="#008475" style=""/></g></g></g></g><g><g><g><path d="m48.745 10.149h31.723v132.031h-31.723z" fill="#57697d" data-original="#57697d" style="" class=""/></g><g><path d="m143.913 10.149h31.723v132.031h-31.723z" fill="#57697d" data-original="#57697d" style="" class=""/></g></g><g><g><path d="m429.418 10.149h31.723v132.03h-31.723z" fill="#233952" data-original="#233952" style="" class=""/></g><g><path d="m334.249 10.149h31.723v132.03h-31.723z" fill="#233952" data-original="#233952" style="" class=""/></g></g><g><path d="m271.861 10.149v132.03h-15.872l-7.92-66.015 7.91-66.015z" fill="#233952" data-original="#233952" style="" class=""/><path d="m255.989 142.179h-15.85v-132.03h15.84v63.741z" fill="#57697d" data-original="#57697d" style="" class=""/></g></g></g></g></svg>
