<svg height="512" viewBox="0 0 58 58" width="512" xmlns="http://www.w3.org/2000/svg"><g id="Page-1" fill="none" fill-rule="evenodd"><g id="068---Wedding-Date" fill-rule="nonzero"><path id="Shape" d="m58 14v35l-9 9h-46c-1.65685425 0-3-1.3431458-3-3v-41z" fill="#ecf0f1"/><path id="Shape" d="m58 6v10h-58v-10c0-1.65685425 1.34314575-3 3-3h52c1.6568542 0 3 1.34314575 3 3z" fill="#e64c3c"/><path id="Shape" d="m58 49h-6c-1.6568542 0-3 1.3431458-3 3v6z" fill="#d1d4d1"/><path id="Shape" d="m21 26c-.8380786.0019874-1.6744547.0755884-2.5.22l-7.36 3.84c-5.34968063 5.3721013-5.45106166 14.0265012-.2286936 19.5224476 5.2223681 5.4959465 13.8706706 5.8362064 19.5086936.7675524l2.6-3.18c2.5833102-4.3249685 2.6425919-9.7046694.1552155-14.0855144-2.4873763-4.3808451-7.137474-7.0866329-12.1752155-7.0844856zm8.74 18.86-2.63 3.05c-4.0533621 3.1188765-9.8093152 2.6648337-13.3235403-1.0509915s-3.6468179-9.4881359-.3069181-13.3614037c3.3398999-3.8732679 9.0689338-4.5911266 13.2612294-1.6616569 4.1922957 2.9294696 5.4880039 8.5560397 2.999229 13.0240521z" fill="#f0c419"/><path id="Shape" d="m53 22h-1v-1c0-.5522847-.4477153-1-1-1s-1 .4477153-1 1v1h-1c-.5522847 0-1 .4477153-1 1s.4477153 1 1 1h1v1c0 .5522847.4477153 1 1 1s1-.4477153 1-1v-1h1c.5522847 0 1-.4477153 1-1s-.4477153-1-1-1z" fill="#ff5364"/><path id="Shape" d="m8 51h-1v-1c0-.5522847-.44771525-1-1-1s-1 .4477153-1 1v1h-1c-.55228475 0-1 .4477153-1 1s.44771525 1 1 1h1v1c0 .5522847.44771525 1 1 1s1-.4477153 1-1v-1h1c.55228475 0 1-.4477153 1-1s-.44771525-1-1-1z" fill="#ff5364"/><path id="Shape" d="m47 3c1.7799916.69615377 2.9644585 2.39704811 3 4.308-.1669773 2.63882398-2.3558984 4.6936142-5 4.6936142s-4.8330227-2.05479022-5-4.6936142c.0355415-1.91095189 1.2200084-3.61184623 3-4.308z" fill="#c03a2b"/><path id="Shape" d="m15 3c1.7799916.69615377 2.9644585 2.39704811 3 4.308-.0886126 2.67476119-2.3250095 4.773396-5 4.692-2.6749905.081396-4.91138737-2.01723881-5-4.692.03554154-1.91095189 1.22000835-3.61184623 3-4.308z" fill="#c03a2b"/><rect id="Rectangle-path" fill="#95a5a5" height="8" rx="2" width="4" x="43"/><rect id="Rectangle-path" fill="#95a5a5" height="8" rx="2" width="4" x="11"/><path id="Shape" d="m51 38c.0032565 5.9117041-3.7071797 11.1883268-9.2714867 13.1850099-5.5643069 1.9966831-11.7831117.2830463-15.5392959-4.2819659-3.7561842-4.5650121-4.2401114-10.9974221-1.2092174-16.073044 1.2414827.5345893 2.3584029 1.3212008 3.28 2.31-2.5122557 4.496031-1.2129978 10.1639712 3.006761 13.1168273s9.9898293 2.2318122 13.3531786-1.6686499 3.2278712-9.7138315-.3135253-13.4533814c-3.5413966-3.73955-9.338792-4.191019-13.4164143-1.044796-.974231-.9753002-2.0901428-1.7979059-3.31-2.44 4.0975171-3.7329369 10.0120723-4.6957703 15.0820182-2.4552093 5.0699459 2.2405611 8.3397638 7.2622442 8.3379818 12.8052093z" fill="#f3d55b"/><path id="Shape" d="m13.94 20.04-.34 5.76-4.93-3.02c.07664273-.0687848.16045755-.1291315.25-.18l4.73-2.46c.0909483-.0480498.1887656-.0817799.29-.1z" fill="#67b9cc"/><path id="Shape" d="m19.79 22.57-6.19 3.23.34-5.76c.2068013-.0486974.4236749-.0312076.62.05l4.69 1.91c.2539214.1030248.450841.3108845.54.57z" fill="#2fa8cc"/><path id="Shape" d="m19.77 23.3-3.4 7.82-2.77-5.32 6.19-3.23c.0932632.2358612.0860375.4995991-.02.73z" fill="#3b97d3"/><path id="Shape" d="m16.37 31.12-8.36-1.69c-.24791882-.0481849-.46698584-.1918355-.61-.4l6.2-3.23z" fill="#2980ba"/><path id="Shape" d="m13.6 25.8-6.2 3.23c-.15560461-.2243436-.21001543-.5036525-.15-.77l1.11-4.94c.05307661-.2045271.16014392-.3910315.31-.54z" fill="#2fa8cc"/></g></g></svg>