<svg enable-background="new 0 0 24 24" height="512" viewBox="0 0 24 24" width="512" xmlns="http://www.w3.org/2000/svg"><path d="m24 11.24v10.51c0 1.24-1.01 2.25-2.25 2.25h-19.5c-1.24 0-2.25-1.01-2.25-2.25v-10.51l11.07 5.78c.58.3 1.28.3 1.86 0z" fill="#64b5f6"/><path d="m21.005 8.75h-3.522-10.967-3.521c-1.145 0-2.078.846-2.078 1.885v.829l10.224 4.842c.536.251 1.182.251 1.718 0l10.224-4.842v-.829c0-1.039-.933-1.885-2.078-1.885z" fill="#2196f3"/><path d="m12 12c-.192 0-.384-.073-.53-.22l-3.75-3.75c-.293-.293-.293-.768 0-1.061s.768-.293 1.061 0l3.22 3.22 3.22-3.22c.293-.293.768-.293 1.061 0s.293.768 0 1.061l-3.75 3.75c-.148.147-.34.22-.532.22z"/><path d="m12 12c-.414 0-.75-.336-.75-.75v-10.5c0-.414.336-.75.75-.75s.75.336.75.75v10.5c0 .414-.336.75-.75.75z"/><path d="m21.75 24h-19.5c-1.241 0-2.25-1.01-2.25-2.25v-11.5c0-1.24 1.009-2.25 2.25-2.25h3.5c.414 0 .75.336.75.75s-.336.75-.75.75h-3.5c-.414 0-.75.337-.75.75v11.5c0 .413.336.75.75.75h19.5c.414 0 .75-.337.75-.75v-11.5c0-.413-.336-.75-.75-.75h-3.5c-.414 0-.75-.336-.75-.75s.336-.75.75-.75h3.5c1.241 0 2.25 1.01 2.25 2.25v11.5c0 1.24-1.009 2.25-2.25 2.25z"/><path d="m12 17.996c-.438 0-.876-.104-1.275-.311l-10.322-5.39c-.367-.192-.509-.646-.318-1.013.193-.366.647-.507 1.012-.317l10.32 5.39c.364.189.801.19 1.168-.001l10.318-5.389c.368-.189.82-.049 1.012.317.191.367.049.82-.318 1.013l-10.32 5.39c-.4.207-.839.311-1.277.311z"/></svg>