<?xml version="1.0"?>
<svg xmlns="http://www.w3.org/2000/svg" xmlns:xlink="http://www.w3.org/1999/xlink" xmlns:svgjs="http://svgjs.com/svgjs" version="1.1" width="512" height="512" x="0" y="0" viewBox="0 0 128 128" style="enable-background:new 0 0 512 512" xml:space="preserve" class=""><g><g xmlns="http://www.w3.org/2000/svg"><path d="m112.545 40.831c0-.291-.126-.56-.336-.746l-27.458-27.459c-.188-.188-.441-.293-.707-.293h-49.165c-2.757 0-5 2.243-5 5v60.401h-5.424c-2.757 0-5 2.243-5 5v22.778c0 2.757 2.243 5 5 5h5.424v4.153c0 2.757 2.243 5 5 5h72.666c2.897 0 5-2.366 5-5.625z" fill="#e6e7e8" data-original="#e6e7e8" style="" class=""/><g><path d="m107.543 36.833-27.499-27.5h-49.165c-2.209 0-4 1.791-4 4v61.402h54.493c2.209 0 4 1.791 4 4v22.778c0 2.209-1.791 4-4 4h-54.493v5.153c0 2.209 1.791 4 4 4h72.667c2.209 0 4-1.791 4-4v-73.835z" fill="#00008b" data-original="#6dc9f7" style="" class=""/><path d="m80.046 9.333-.002.002v23.498c0 2.209 1.791 4 4 4h23.501z" fill="#0089ef" data-original="#0089ef" style=""/><g><path d="m80.044 9.335v-.002h-49.165c-2.209 0-4 1.791-4 4v3c0-2.209 1.791-4 4-4h49.165z" fill="#fffcfc" data-original="#ffffff" style="" class=""/></g><path d="m81.372 105.513h-60.917c-2.209 0-4-1.791-4-4v-22.778c0-2.209 1.791-4 4-4h60.917c2.209 0 4 1.791 4 4v22.778c0 2.209-1.791 4-4 4z" fill="#d82161" data-original="#ffd7e5" style="" class=""/><g fill="#3a2c60"><path d="m38.138 27.83h33.148c.553 0 1-.448 1-1s-.447-1-1-1h-33.148c-.553 0-1 .448-1 1s.447 1 1 1z" fill="#ffffff" data-original="#3a2c60" style="" class=""/><path d="m38.138 37.83h33.148c.553 0 1-.448 1-1s-.447-1-1-1h-33.148c-.553 0-1 .448-1 1s.447 1 1 1z" fill="#ffffff" data-original="#3a2c60" style="" class=""/><path d="m96.286 45.83h-58.148c-.553 0-1 .448-1 1s.447 1 1 1h58.148c.553 0 1-.448 1-1s-.447-1-1-1z" fill="#ffffff" data-original="#3a2c60" style="" class=""/><path d="m96.286 55.83h-58.148c-.553 0-1 .448-1 1s.447 1 1 1h58.148c.553 0 1-.448 1-1s-.447-1-1-1z" fill="#ffffff" data-original="#3a2c60" style="" class=""/><path d="m96.286 65.83h-58.148c-.553 0-1 .448-1 1s.447 1 1 1h58.148c.553 0 1-.448 1-1s-.447-1-1-1z" fill="#ffffff" data-original="#3a2c60" style="" class=""/><path d="m107.545 68.333c-.553 0-1 .448-1 1v10.667c0 .552.447 1 1 1s1-.448 1-1v-10.667c0-.552-.447-1-1-1z" fill="#ffffff" data-original="#3a2c60" style="" class=""/><path d="m108.209 36.085-27.458-27.459c-.188-.188-.441-.293-.707-.293h-49.165c-2.757 0-5 2.243-5 5v60.401h-5.424c-2.757 0-5 2.243-5 5v22.778c0 2.757 2.243 5 5 5h5.424v4.153c0 2.757 2.243 5 5 5h72.666c2.757 0 5-2.243 5-5v-26.29c0-.552-.447-1-1-1s-1 .448-1 1v26.292c0 1.654-1.346 3-3 3h-72.666c-1.654 0-3-1.346-3-3v-4.153h53.493c2.757 0 5-2.243 5-5v-22.779c0-2.757-2.243-5-5-5h-53.493v-60.402c0-1.654 1.346-3 3-3h48.165v22.5c0 2.757 2.243 5 5 5h22.501v27.167c0 .552.447 1 1 1s1-.448 1-1v-28.169c0-.291-.126-.56-.336-.746zm-23.837 42.65v22.778c0 1.654-1.346 3-3 3h-60.917c-1.654 0-3-1.346-3-3v-22.778c0-1.654 1.346-3 3-3h60.917c1.654 0 3 1.346 3 3zm-3.328-45.902v-21.085l24.085 24.085h-21.085c-1.654 0-3-1.346-3-3z" fill="#ffffff" data-original="#3a2c60" style="" class=""/><path d="m29.674 98.584h8.137c1.167 0 1.752-.504 1.752-1.512 0-1.023-.585-1.536-1.752-1.536h-6.145v-12.143c0-.56-.168-1.008-.504-1.344s-.792-.504-1.368-.504-1.032.168-1.368.504-.504.784-.504 1.344v13.44c0 .56.152.992.456 1.296s.736.455 1.296.455z" fill="#ffffff" data-original="#3a2c60" style="" class=""/><path d="m43.87 97.732c1.239.712 2.7 1.068 4.38 1.068s3.14-.355 4.38-1.068c1.24-.712 2.196-1.72 2.868-3.024s1.008-2.836 1.008-4.596-.336-3.292-1.008-4.596-1.628-2.308-2.868-3.012-2.7-1.056-4.38-1.056-3.141.353-4.38 1.056c-1.24.704-2.196 1.708-2.868 3.012s-1.008 2.836-1.008 4.596.336 3.292 1.008 4.596c.672 1.305 1.628 2.312 2.868 3.024zm1.056-11.903c.792-.984 1.9-1.476 3.324-1.476s2.536.492 3.336 1.476 1.2 2.412 1.2 4.284-.404 3.304-1.212 4.296c-.809.992-1.917 1.488-3.324 1.488-1.408 0-2.512-.496-3.313-1.488-.8-.992-1.199-2.424-1.199-4.296s.396-3.301 1.188-4.284z" fill="#ffffff" data-original="#3a2c60" style="" class=""/><path d="m62.962 97.756c1.312.696 2.863 1.044 4.655 1.044.721 0 1.484-.056 2.292-.168.809-.112 1.524-.264 2.148-.456.512-.144.896-.32 1.152-.528s.436-.488.54-.84.155-.848.155-1.488v-4.68c0-.432-.132-.772-.396-1.02s-.62-.372-1.068-.372h-4.104c-.465 0-.824.112-1.08.336s-.384.544-.384.96c0 .417.128.736.384.96s.615.336 1.08.336h2.208v3.72c-.912.24-1.832.36-2.761.36-1.712 0-2.991-.48-3.84-1.44-.848-.96-1.271-2.416-1.271-4.368 0-3.792 1.632-5.688 4.896-5.688.672 0 1.288.088 1.849.264.56.176 1.176.472 1.848.888.24.144.444.248.612.312s.355.096.563.096c.32 0 .596-.147.828-.444.231-.296.348-.652.348-1.068 0-.288-.048-.528-.144-.72s-.264-.384-.504-.576c-1.456-1.152-3.296-1.728-5.521-1.728-1.728 0-3.239.353-4.535 1.056-1.297.704-2.292 1.708-2.988 3.012s-1.044 2.836-1.044 4.596c0 1.792.352 3.34 1.056 4.644.705 1.305 1.713 2.305 3.026 3z" fill="#ffffff" data-original="#3a2c60" style="" class=""/></g></g></g></g></svg>
