<?xml version="1.0"?>
<svg xmlns="http://www.w3.org/2000/svg" xmlns:xlink="http://www.w3.org/1999/xlink" xmlns:svgjs="http://svgjs.com/svgjs" version="1.1" width="512" height="512" x="0" y="0" viewBox="0 0 512 512" style="enable-background:new 0 0 512 512" xml:space="preserve" class=""><g><g xmlns="http://www.w3.org/2000/svg"><path d="m169 164v83h174v-30.1c-21.34-3.07-44.57-12.53-69.29-28.24-15.29-9.71-27.24-19.4-33.38-24.66z" fill="#00008b" data-original="#000000" style="" class=""/><path d="m340 112c0-22.059 0-91.135 0-112h-279.5v512h391v-400s-101.198 0-111.5 0zm-178 290v30h-30v-30zm-30-30v-30h30v30zm60 60v-30h188v30zm188-60h-188v-30h188zm-22-184h15v89h-234v-143h112.9c4.164 3.478 54.36 52.599 106.1 54z" fill="#00008b" data-original="#000000" style="" class=""/><path d="m370 82h80.69l-80.69-82z" fill="#00008b" data-original="#000000" style="" class=""/></g></g></svg>
