<?xml version="1.0"?>
<svg xmlns="http://www.w3.org/2000/svg" xmlns:xlink="http://www.w3.org/1999/xlink" xmlns:svgjs="http://svgjs.com/svgjs" version="1.1" width="512" height="512" x="0" y="0" viewBox="0 0 511 512" style="enable-background:new 0 0 512 512" xml:space="preserve" class=""><g><path xmlns="http://www.w3.org/2000/svg" d="m276.535156 184.015625v-63.941406h-39.191406c-17.03125 0-30.890625 13.855469-30.890625 30.886719v210.078124c0 17.03125 13.855469 30.890626 30.890625 30.890626h39.191406v-63.945313h-40.03125v-143.96875zm0 0" fill="#00008b" data-original="#000000" style="" class=""/><path xmlns="http://www.w3.org/2000/svg" d="m30.535156 0v60.046875h-30.035156v30h30.035156v60.476563h-30.035156v30h30.035156v60.476562h-30.035156v30h30.035156v60.476562h-30.035156v30h30.035156v60.476563h-30.035156v30h30.035156v60.046875h421.917969v-512zm276 297.984375v123.941406h-69.191406c-33.574219 0-60.890625-27.3125-60.890625-60.886719v-210.078124c0-33.574219 27.316406-60.890626 60.890625-60.890626h69.191406v123.945313h-40.03125v83.96875zm0 0" fill="#00008b" data-original="#000000" style="" class=""/></g></svg>
