<svg id="Layer_1" enable-background="new 0 0 512.216 512.216" height="512" viewBox="0 0 512.216 512.216" width="512" xmlns="http://www.w3.org/2000/svg"><g><path d="m181.905 512.216h-153.894c-15.41 0-27.903-12.493-27.903-27.903v-81.558c0-28.118 22.794-50.912 50.912-50.912h103.252c30.671 0 55.535 24.864 55.535 55.535v76.935c.001 15.41-12.492 27.903-27.902 27.903z" fill="#f4f1f1"/><path d="m157.761 351.843h-51.836c-.534 0-.967.433-.967.967v158.438c0 .534.433.967.967.967h76.278c15.246 0 27.605-12.359 27.605-27.605v-80.72c0-28.745-23.302-52.047-52.047-52.047z" fill="#eceae7"/><path d="m158.255 351.843h-107.541c-15.07 0-28.612 6.529-37.961 16.909 10.959 21.25 35.347 44.204 89.611 44.204 54.95 0 81.765-22.546 94.8-43.111-9.37-11.009-23.319-18.002-38.909-18.002z" fill="#ffbf80"/><path d="m158.255 351.843h-53.297v61.081c53.189-.703 79.379-22.842 92.205-43.078-9.369-11.01-23.318-18.003-38.908-18.003z" fill="#ffa64d"/><path d="m145.277 191.677c0-22.943-18.599-41.542-41.542-41.542s-41.542 18.599-41.542 41.542c0 5.736.019 8.166 2.121 13.136l40.644 30.986 38.558-32.123c1.846-4.701 1.761-6.642 1.761-11.999z" fill="#b34f03"/><path d="m105.51 150.135v85.16l38.006-31.664c1.846-4.701 1.761-6.643 1.761-11.999 0-22.348-17.648-40.566-39.767-41.497z" fill="#913f02"/><path d="m104.958 359.279c-36.12 0-65.4-29.281-65.4-65.4v-46.221c0-27.304 26.388-21.58 53.693-21.58l28.066 9.722c27.304 0 49.041-15.446 49.041 11.858v46.221c0 36.119-29.281 65.4-65.4 65.4z" fill="#ffd9b3"/><path d="m121.733 235.8-16.22-5.667v129.146c35.813 0 64.845-29.281 64.845-65.4v-46.221c0-27.304-21.553-11.858-48.625-11.858z" fill="#ffbf80"/><path d="m340.71 98.375h-.005c50.884-60.997-31.906-132.445-84.679-79.88-57.517-54.628-133.795 23.749-84.679 79.88.843.881 51.721 54.061 74.205 77.562 5.715 5.973 15.235 5.974 20.949.001 22.27-23.277 72.287-75.554 74.209-77.563z" fill="#ff0059"/><path d="m256.133 18.393v162.024c3.773-.028 7.536-1.518 10.367-4.477 22.271-23.277 72.288-75.554 74.21-77.563h-.005c50.849-60.955-31.794-132.346-84.572-79.984z" fill="#c1126b"/><path d="m105.51 198.219h-16.142c-27.304 0-49.81 22.135-49.81 49.439v25.722c91.09 0 129.347-33.278 129.899-33.767-4.029-23.255-63.772-18.069-63.947-41.394z" fill="#e56705"/><path d="m105.51 198.219v68.379c44.394-9.842 63.554-26.634 63.947-26.985-3.994-23.255-23.553-41.394-47.753-41.394z" fill="#b34f03"/><g><path d="m487.481 512.216h-160.446c-13.601 0-24.627-11.026-24.627-24.627v-82.725c0-29.283 23.738-53.021 53.021-53.021l51.276 54.566 52.381-54.566c29.283 0 53.021 23.738 53.021 53.021v82.725c.001 13.601-11.025 24.627-24.626 24.627z" fill="#0d8ebc"/><path d="m461.029 351.843-53.771 22.772v137.6h81.571c12.857 0 23.279-10.422 23.279-23.279v-89.172c0-26.465-19.607-47.921-51.079-47.921z" fill="#0a617d"/><path d="m461.029 351.843h-107.542l53.771 75.757z" fill="#f4f1f1"/><path d="m407.258 427.6 53.771-75.757h-53.771z" fill="#e7dfdd"/></g><g><path d="m406.706 359.374c-36.12 0-65.4-29.281-65.4-65.4v-46.221c-1.641-33.859 26.388-21.58 53.693-21.58l28.066 9.722c27.304 0 49.041-15.446 49.041 11.858v46.221c0 36.119-29.281 65.4-65.4 65.4z" fill="#ffd9b3"/><path d="m423.481 235.895-16.22-5.667v129.146c35.813 0 64.845-29.281 64.845-65.4v-46.221c0-27.304-21.553-11.858-48.625-11.858z" fill="#ffbf80"/><path d="m471.735 247.753c0-27.304-22.135-49.439-49.439-49.439h-32.336c-24.2 0-44.289 17.691-48.284 40.946.392.35 20.084 17.782 64.477 27.625l1.107.254c17.783 3.952 38.416 6.337 64.474 6.337v-25.723z" fill="#ffda2d"/></g><path d="m422.296 198.314h-15.036v68.825c18.566 4.193 39.32 6.374 64.845 6.374v-25.76c.001-27.304-22.505-49.439-49.809-49.439z" fill="#fdbf00"/></g></svg>